<svg xmlns="http://www.w3.org/2000/svg" width="1056" height="384" viewBox="0 0 1056 384" overflow="visible"><defs><filter id="sh" x="-10%" y="-10%" width="120%" height="130%"><feDropShadow dx="0" dy="2" stdDeviation="2" flood-color="#2B2620" flood-opacity="0.12"></feDropShadow></filter></defs><g opacity="0.95"><line x1="32" y1="1.6" x2="32" y2="382.4" stroke="#CDBFA8" stroke-width="1.8" stroke-linecap="round"></line><line x1="32" y1="1.6" x2="32" y2="382.4" stroke="#FFFFFF" stroke-width="0.72" stroke-linecap="round"></line><line x1="96" y1="1.6" x2="96" y2="382.4" stroke="#CDBFA8" stroke-width="1.8" stroke-linecap="round"></line><line x1="96" y1="1.6" x2="96" y2="382.4" stroke="#FFFFFF" stroke-width="0.72" stroke-linecap="round"></line><line x1="160" y1="1.6" x2="160" y2="382.4" stroke="#CDBFA8" stroke-width="1.8" stroke-linecap="round"></line><line x1="160" y1="1.6" x2="160" y2="382.4" stroke="#FFFFFF" stroke-width="0.72" stroke-linecap="round"></line><line x1="224" y1="1.6" x2="224" y2="382.4" stroke="#CDBFA8" stroke-width="1.8" stroke-linecap="round"></line><line x1="224" y1="1.6" x2="224" y2="382.4" stroke="#FFFFFF" stroke-width="0.72" stroke-linecap="round"></line><line x1="288" y1="1.6" x2="288" y2="382.4" stroke="#CDBFA8" stroke-width="1.8" stroke-linecap="round"></line><line x1="288" y1="1.6" x2="288" y2="382.4" stroke="#FFFFFF" stroke-width="0.72" stroke-linecap="round"></line><line x1="352" y1="1.6" x2="352" y2="382.4" stroke="#CDBFA8" stroke-width="1.8" stroke-linecap="round"></line><line x1="352" y1="1.6" x2="352" y2="382.4" stroke="#FFFFFF" stroke-width="0.72" stroke-linecap="round"></line><line x1="416" y1="1.6" x2="416" y2="382.4" stroke="#CDBFA8" stroke-width="1.8" stroke-linecap="round"></line><line x1="416" y1="1.6" x2="416" y2="382.4" stroke="#FFFFFF" stroke-width="0.72" stroke-linecap="round"></line><line x1="480" y1="1.6" x2="480" y2="382.4" stroke="#CDBFA8" stroke-width="1.8" stroke-linecap="round"></line><line x1="480" y1="1.6" x2="480" y2="382.4" stroke="#FFFFFF" stroke-width="0.72" stroke-linecap="round"></line><line x1="544" y1="1.6" x2="544" y2="382.4" stroke="#CDBFA8" stroke-width="1.8" stroke-linecap="round"></line><line x1="544" y1="1.6" x2="544" y2="382.4" stroke="#FFFFFF" stroke-width="0.72" stroke-linecap="round"></line><line x1="608" y1="1.6" x2="608" y2="382.4" stroke="#CDBFA8" stroke-width="1.8" stroke-linecap="round"></line><line x1="608" y1="1.6" x2="608" y2="382.4" stroke="#FFFFFF" stroke-width="0.72" stroke-linecap="round"></line><line x1="672" y1="1.6" x2="672" y2="382.4" stroke="#CDBFA8" stroke-width="1.8" stroke-linecap="round"></line><line x1="672" y1="1.6" x2="672" y2="382.4" stroke="#FFFFFF" stroke-width="0.72" stroke-linecap="round"></line><line x1="736" y1="1.6" x2="736" y2="382.4" stroke="#CDBFA8" stroke-width="1.8" stroke-linecap="round"></line><line x1="736" y1="1.6" x2="736" y2="382.4" stroke="#FFFFFF" stroke-width="0.72" stroke-linecap="round"></line><line x1="800" y1="1.6" x2="800" y2="382.4" stroke="#CDBFA8" stroke-width="1.8" stroke-linecap="round"></line><line x1="800" y1="1.6" x2="800" y2="382.4" stroke="#FFFFFF" stroke-width="0.72" stroke-linecap="round"></line><line x1="864" y1="1.6" x2="864" y2="382.4" stroke="#CDBFA8" stroke-width="1.8" stroke-linecap="round"></line><line x1="864" y1="1.6" x2="864" y2="382.4" stroke="#FFFFFF" stroke-width="0.72" stroke-linecap="round"></line><line x1="928" y1="1.6" x2="928" y2="382.4" stroke="#CDBFA8" stroke-width="1.8" stroke-linecap="round"></line><line x1="928" y1="1.6" x2="928" y2="382.4" stroke="#FFFFFF" stroke-width="0.72" stroke-linecap="round"></line><line x1="992" y1="1.6" x2="992" y2="382.4" stroke="#CDBFA8" stroke-width="1.8" stroke-linecap="round"></line><line x1="992" y1="1.6" x2="992" y2="382.4" stroke="#FFFFFF" stroke-width="0.72" stroke-linecap="round"></line><line x1="1.6" y1="32" x2="1054.4" y2="32" stroke="#CDBFA8" stroke-width="1.8" stroke-linecap="round"></line><line x1="1.6" y1="32" x2="1054.4" y2="32" stroke="#FFFFFF" stroke-width="0.72" stroke-linecap="round"></line><line x1="1.6" y1="96" x2="1054.4" y2="96" stroke="#CDBFA8" stroke-width="1.8" stroke-linecap="round"></line><line x1="1.6" y1="96" x2="1054.4" y2="96" stroke="#FFFFFF" stroke-width="0.72" stroke-linecap="round"></line><line x1="1.6" y1="160" x2="1054.4" y2="160" stroke="#CDBFA8" stroke-width="1.8" stroke-linecap="round"></line><line x1="1.6" y1="160" x2="1054.4" y2="160" stroke="#FFFFFF" stroke-width="0.72" stroke-linecap="round"></line><line x1="1.6" y1="224" x2="1054.4" y2="224" stroke="#CDBFA8" stroke-width="1.8" stroke-linecap="round"></line><line x1="1.6" y1="224" x2="1054.4" y2="224" stroke="#FFFFFF" stroke-width="0.72" stroke-linecap="round"></line><line x1="1.6" y1="288" x2="1054.4" y2="288" stroke="#CDBFA8" stroke-width="1.8" stroke-linecap="round"></line><line x1="1.6" y1="288" x2="1054.4" y2="288" stroke="#FFFFFF" stroke-width="0.72" stroke-linecap="round"></line><line x1="1.6" y1="352" x2="1054.4" y2="352" stroke="#CDBFA8" stroke-width="1.8" stroke-linecap="round"></line><line x1="1.6" y1="352" x2="1054.4" y2="352" stroke="#FFFFFF" stroke-width="0.72" stroke-linecap="round"></line></g><rect x="1.6" y="1.6" width="1052.8" height="380.8" rx="4" fill="none" stroke="#CDBFA8" stroke-width="3.2"></rect><rect x="1.6" y="1.6" width="1052.8" height="380.8" rx="4" fill="none" stroke="#FFFFFF" stroke-width="1.2"></rect><circle cx="192" cy="2" r="4" fill="#EDE6DA" stroke="#9A8F7A" stroke-width="0.8"></circle><line x1="189.5" y1="2" x2="194.5" y2="2" stroke="#9A8F7A" stroke-width="0.8"></line><circle cx="960" cy="2" r="4" fill="#EDE6DA" stroke="#9A8F7A" stroke-width="0.8"></circle><line x1="957.5" y1="2" x2="962.5" y2="2" stroke="#9A8F7A" stroke-width="0.8"></line><g transform="translate(392.0 254.0) scale(0.75) translate(-392.0 -254.0)"><g transform="rotate(2.5 392.0 254.0)" filter="url(#sh)"><rect x="322" y="190" width="140" height="128" fill="#FEFCF8" stroke="#E6DFD2" stroke-width="0.8"></rect><line x1="340" y1="200" x2="340" y2="308" stroke="#E9D9DF" stroke-width="0.8"></line><polyline points="352.0,232.9 355.5,234.9 358.7,234.2 362.8,231.3 367.3,231.2 371.6,231.4 374.9,233.5 380.3,231.7 384.0,234.8 389.9,234.5 394.0,236.9 397.2,236.2 401.1,231.9 404.4,232.9 409.9,232.1" fill="none" stroke="#2B2620" stroke-width="2.2" stroke-linecap="round" stroke-linejoin="round" opacity="0.7"></polyline><line x1="350" y1="263" x2="450" y2="263" stroke="#EDE5D6" stroke-width="0.7"></line><polyline points="352.0,258.4 356.1,258.2 359.3,256.6 362.9,258.6 367.2,257.4 372.0,257.9 375.9,258.9 381.0,257.2 385.7,258.1 391.3,258.7 395.2,259.5 398.5,257.7 403.8,256.9 408.3,256.5 413.3,258.8 418.0,259.2 421.9,258.6 426.7,258.3 431.1,259.1" fill="none" stroke="#4A4438" stroke-width="0.9" stroke-linecap="round" stroke-linejoin="round" opacity="0.55"></polyline><line x1="350" y1="281" x2="450" y2="281" stroke="#EDE5D6" stroke-width="0.7"></line><polyline points="352.0,275.9 357.0,274.6 362.1,276.5 368.1,277.0 371.9,275.6 376.9,274.5 381.3,274.9 384.7,274.6 390.0,274.8 393.7,275.7 399.3,274.7 403.7,276.2 409.3,277.0 414.9,275.3" fill="none" stroke="#4A4438" stroke-width="0.9" stroke-linecap="round" stroke-linejoin="round" opacity="0.55"></polyline></g><rect x="391.75" y="176" width="8" height="24" rx="1.5" fill="#C9A27A" stroke="#9C7A55" stroke-width="0.6"></rect></g><g transform="translate(631.0 250.0) scale(0.75) translate(-631.0 -250.0)"><g transform="rotate(2 631.0 250.0)" filter="url(#sh)"><rect x="556" y="188" width="150" height="124" fill="#FEFCF8" stroke="#E6DFD2" stroke-width="0.8"></rect><line x1="574" y1="198" x2="574" y2="302" stroke="#E9D9DF" stroke-width="0.8"></line><polyline points="586.0,231.2 591.7,234.7 595.1,230.1 598.8,230.4 603.3,232.5 607.0,229.0 611.3,231.2 616.0,234.7 621.1,232.1 625.9,233.1 629.1,234.4 634.4,234.2 639.8,231.4 644.0,229.6 648.9,229.4 652.1,230.3 655.6,231.0 658.8,229.0" fill="none" stroke="#2B2620" stroke-width="2.2" stroke-linecap="round" stroke-linejoin="round" opacity="0.7"></polyline><line x1="584" y1="261" x2="694" y2="261" stroke="#EDE5D6" stroke-width="0.7"></line><polyline points="586.0,254.7 590.1,254.5 595.7,256.4 599.2,255.2 603.2,255.6 606.6,257.1 612.5,255.9 617.0,254.7 620.3,255.5 624.1,257.1 627.6,254.5 633.4,256.1 636.9,256.1 640.0,256.1 645.9,257.2 651.0,255.2 655.1,254.9 660.4,256.1 665.7,255.5 669.4,257.0" fill="none" stroke="#4A4438" stroke-width="0.9" stroke-linecap="round" stroke-linejoin="round" opacity="0.55"></polyline><line x1="584" y1="279" x2="694" y2="279" stroke="#EDE5D6" stroke-width="0.7"></line><polyline points="586.0,275.1 591.4,275.0 596.6,273.1 601.2,273.5 604.3,272.5 608.1,273.2 613.2,275.5 617.5,275.4 623.5,275.5 627.6,273.1 631.3,273.0 634.9,274.4 640.6,275.1" fill="none" stroke="#4A4438" stroke-width="0.9" stroke-linecap="round" stroke-linejoin="round" opacity="0.55"></polyline></g><rect x="630.0" y="174" width="8" height="24" rx="1.5" fill="#C9A27A" stroke="#9C7A55" stroke-width="0.6"></rect></g><g transform="translate(737.0 153.0) scale(0.75) translate(-737.0 -153.0)"><g transform="rotate(-1.2 737.0 153.0)" filter="url(#sh)"><rect x="664" y="84" width="146" height="138" fill="#FEFCF8" stroke="#E6DFD2" stroke-width="0.8"></rect><line x1="682" y1="94" x2="682" y2="212" stroke="#E9D9DF" stroke-width="0.8"></line><polyline points="694.0,128.9 699.4,125.5 704.4,130.5 709.7,129.5 714.2,126.1 719.5,127.0 724.9,130.8 729.1,127.4 735.0,129.3 738.5,125.8 741.9,130.4 747.3,125.9 752.8,130.9 757.8,127.1 762.4,125.8 765.5,130.8 770.4,128.2 776.2,127.6 781.8,130.0" fill="none" stroke="#2B2620" stroke-width="2.2" stroke-linecap="round" stroke-linejoin="round" opacity="0.7"></polyline><line x1="692" y1="157" x2="798" y2="157" stroke="#EDE5D6" stroke-width="0.7"></line><polyline points="694.0,151.2 697.9,151.2 702.6,151.2 706.9,150.8 712.6,151.5 717.0,152.3 722.7,151.7 728.5,152.0 733.1,152.1 736.1,151.8 739.7,150.4 745.1,151.0 749.5,152.7 754.2,151.4 758.7,152.2" fill="none" stroke="#4A4438" stroke-width="0.9" stroke-linecap="round" stroke-linejoin="round" opacity="0.55"></polyline><line x1="692" y1="175" x2="798" y2="175" stroke="#EDE5D6" stroke-width="0.7"></line><polyline points="694.0,168.7 698.7,169.2 702.5,170.9 707.0,170.2 712.3,171.3 716.6,170.4 721.2,170.0 726.2,169.8 730.8,169.9 736.7,170.6 742.3,171.4 746.1,170.2 751.9,171.1 755.3,168.8 759.6,168.6 763.4,168.6 768.4,170.9 774.1,168.9 779.2,170.5 782.6,171.2 788.5,169.1" fill="none" stroke="#4A4438" stroke-width="0.9" stroke-linecap="round" stroke-linejoin="round" opacity="0.55"></polyline><line x1="692" y1="193" x2="798" y2="193" stroke="#EDE5D6" stroke-width="0.7"></line><polyline points="694.0,187.7 698.5,189.6 704.0,186.9 708.3,188.0 712.3,187.0 716.2,188.7 719.3,188.2 723.6,186.5 727.6,188.4 732.1,186.6 738.1,188.9 744.0,186.7 747.8,186.5 753.1,187.3" fill="none" stroke="#4A4438" stroke-width="0.9" stroke-linecap="round" stroke-linejoin="round" opacity="0.55"></polyline></g><rect x="731.2" y="70" width="8" height="24" rx="1.5" fill="#C9A27A" stroke="#9C7A55" stroke-width="0.6"></rect></g><g transform="translate(131.0 147.0) scale(0.75) translate(-131.0 -147.0)"><g transform="rotate(-2.5 131.0 147.0)" filter="url(#sh)"><rect x="56" y="72" width="150" height="150" fill="#FEFCF8" stroke="#E6DFD2" stroke-width="0.8"></rect><line x1="74" y1="82" x2="74" y2="212" stroke="#E9D9DF" stroke-width="0.8"></line><polyline points="86.0,115.5 91.7,117.9 95.5,113.9 101.3,116.4 106.4,113.5 109.5,117.1 113.8,113.4 119.6,116.8 125.0,113.5 130.6,113.4 136.2,115.7 140.2,116.3 146.0,114.6 149.4,116.2 153.1,113.7 156.6,113.3 160.2,114.9" fill="none" stroke="#2B2620" stroke-width="2.2" stroke-linecap="round" stroke-linejoin="round" opacity="0.7"></polyline><line x1="84" y1="145" x2="194" y2="145" stroke="#EDE5D6" stroke-width="0.7"></line><polyline points="86.0,140.8 89.9,140.0 93.4,139.5 96.5,139.2 99.5,140.7 104.2,139.0 108.6,141.4 111.9,141.0 116.2,140.0 121.7,139.7 126.2,140.6 132.2,139.5 137.7,140.7 142.6,139.7 146.6,138.6 150.0,138.6 155.2,139.2 158.7,138.7 164.2,141.2 169.3,139.3 173.0,139.3 177.4,138.9 181.7,139.2" fill="none" stroke="#4A4438" stroke-width="0.9" stroke-linecap="round" stroke-linejoin="round" opacity="0.55"></polyline><line x1="84" y1="163" x2="194" y2="163" stroke="#EDE5D6" stroke-width="0.7"></line><polyline points="86.0,159.5 90.6,157.2 96.5,157.4 100.6,156.4 104.8,157.9 109.3,157.0 113.8,156.4 117.6,156.7 121.8,156.5 124.8,157.4 128.5,158.3 133.1,158.8 138.1,158.7 143.7,157.6 147.7,159.6 151.2,158.7" fill="none" stroke="#4A4438" stroke-width="0.9" stroke-linecap="round" stroke-linejoin="round" opacity="0.55"></polyline><line x1="84" y1="181" x2="194" y2="181" stroke="#EDE5D6" stroke-width="0.7"></line><polyline points="86.0,174.5 91.5,177.3 96.4,176.7 101.8,174.8 106.4,176.0 111.9,177.0 117.4,176.3 123.1,176.6 128.1,175.1 131.2,174.8 135.3,174.7 140.8,176.2 145.7,176.4 150.7,176.0 153.8,177.0 159.0,176.0 163.6,176.5 166.8,176.8 170.6,174.6" fill="none" stroke="#4A4438" stroke-width="0.9" stroke-linecap="round" stroke-linejoin="round" opacity="0.55"></polyline></g><rect x="123.25" y="58" width="8" height="24" rx="1.5" fill="#C9A27A" stroke="#9C7A55" stroke-width="0.6"></rect></g><g transform="translate(318.0 122.0) scale(0.75) translate(-318.0 -122.0)"><g transform="rotate(1.5 318.0 122.0)" filter="url(#sh)"><rect x="248" y="52" width="140" height="140" fill="#FEFCF8" stroke="#E6DFD2" stroke-width="0.8"></rect><line x1="266" y1="62" x2="266" y2="182" stroke="#E9D9DF" stroke-width="0.8"></line><polyline points="278.0,97.4 281.6,97.4 287.5,96.0 291.7,95.9 296.7,97.6 301.6,96.9 304.8,93.9 308.6,97.5 312.5,96.4 315.5,93.4 319.3,97.0 324.4,97.1 328.3,96.1 332.7,95.8 336.0,98.4 339.6,98.9" fill="none" stroke="#2B2620" stroke-width="2.2" stroke-linecap="round" stroke-linejoin="round" opacity="0.7"></polyline><line x1="276" y1="125" x2="376" y2="125" stroke="#EDE5D6" stroke-width="0.7"></line><polyline points="278.0,118.5 282.4,121.0 288.3,119.8 292.1,119.1 297.9,119.1 302.7,118.9 307.2,121.4 310.6,121.0 315.2,121.2 320.3,119.1 326.0,120.0 329.0,118.4 333.5,119.8 337.4,118.9 341.5,119.4 347.0,118.4 352.2,121.1 355.6,121.4 360.7,121.3" fill="none" stroke="#4A4438" stroke-width="0.9" stroke-linecap="round" stroke-linejoin="round" opacity="0.55"></polyline><line x1="276" y1="143" x2="376" y2="143" stroke="#EDE5D6" stroke-width="0.7"></line><polyline points="278.0,137.6 282.2,139.6 286.9,137.6 291.2,137.3 294.4,136.7 299.9,137.3 305.7,137.2 309.5,138.0 313.1,137.6 318.9,139.2 324.4,138.4 330.1,139.4 334.7,138.7 337.9,138.7 342.2,138.8 347.2,137.3 350.3,139.4 353.7,137.9 357.7,137.4 363.0,139.5 366.7,138.5" fill="none" stroke="#4A4438" stroke-width="0.9" stroke-linecap="round" stroke-linejoin="round" opacity="0.55"></polyline></g><rect x="316.25" y="38" width="8" height="24" rx="1.5" fill="#C9A27A" stroke="#9C7A55" stroke-width="0.6"></rect></g><g transform="translate(515.0 114.0) scale(0.75) translate(-515.0 -114.0)"><g transform="rotate(-1.5 515.0 114.0)" filter="url(#sh)"><rect x="440" y="44" width="150" height="140" fill="#FEFCF8" stroke="#E6DFD2" stroke-width="0.8"></rect><line x1="458" y1="54" x2="458" y2="174" stroke="#E9D9DF" stroke-width="0.8"></line><polyline points="470.0,88.3 474.2,86.0 477.7,86.2 483.4,88.0 487.0,90.4 493.0,87.7 496.5,86.2 499.7,87.1 503.0,86.4 506.8,88.4 512.4,89.5 516.7,87.5 521.2,87.3 525.3,85.4 529.1,90.8 532.5,88.0 537.4,90.2" fill="none" stroke="#2B2620" stroke-width="2.2" stroke-linecap="round" stroke-linejoin="round" opacity="0.7"></polyline><line x1="468" y1="117" x2="578" y2="117" stroke="#EDE5D6" stroke-width="0.7"></line><polyline points="470.0,111.3 473.7,111.7 478.1,113.5 483.6,113.2 486.7,110.5 491.8,113.3 496.2,112.3 499.2,111.7 505.0,113.0 510.6,113.5 514.3,110.7 517.8,112.1 522.8,113.4 528.0,112.5 533.3,111.9 538.0,110.5 543.3,111.1 549.1,112.5 553.0,110.8 556.7,112.4" fill="none" stroke="#4A4438" stroke-width="0.9" stroke-linecap="round" stroke-linejoin="round" opacity="0.55"></polyline><line x1="468" y1="135" x2="578" y2="135" stroke="#EDE5D6" stroke-width="0.7"></line><polyline points="470.0,128.8 473.2,130.1 478.0,129.6 481.6,130.3 484.7,129.4 489.0,131.5 494.0,131.2 498.4,129.2 502.1,131.5 507.3,129.4 510.3,130.0 515.3,129.7 519.1,130.5 524.9,129.1 528.0,129.5 532.3,130.6" fill="none" stroke="#4A4438" stroke-width="0.9" stroke-linecap="round" stroke-linejoin="round" opacity="0.55"></polyline><line x1="468" y1="153" x2="578" y2="153" stroke="#EDE5D6" stroke-width="0.7"></line><polyline points="470.0,149.0 475.2,148.0 478.8,149.5 482.8,149.0 486.5,147.1 491.7,147.3 497.6,148.0 501.2,147.1 505.4,148.5 511.3,146.9 515.4,147.1 521.4,146.9 524.5,146.6 528.7,149.3 534.3,148.7 540.3,149.4 544.3,147.0" fill="none" stroke="#4A4438" stroke-width="0.9" stroke-linecap="round" stroke-linejoin="round" opacity="0.55"></polyline></g><rect x="508.75" y="30" width="8" height="24" rx="1.5" fill="#C9A27A" stroke="#9C7A55" stroke-width="0.6"></rect></g><g filter="url(#sh)"><rect x="936" y="48" width="104" height="232" rx="3" fill="#F6EEDC" stroke="#E4DCCC" stroke-width="0.8"></rect><rect x="944" y="62" width="88" height="18" rx="9" fill="#7D4060"></rect><polyline points="958.0,71.6 961.1,71.4 965.2,70.7 969.2,70.2 972.2,70.5 976.3,72.1 979.7,72.1 983.3,70.7 988.7,71.8 993.0,69.9 997.5,70.7 1003.2,70.3 1007.3,72.0 1010.4,70.8 1015.8,71.6" fill="none" stroke="#FAF6EE" stroke-width="1.2" stroke-linecap="round" stroke-linejoin="round" opacity="0.85"></polyline><rect x="966" y="86" width="44" height="12" rx="6" fill="none" stroke="#7D4060" stroke-width="0.9"></rect><ellipse cx="952" cy="124" rx="5.5" ry="14" fill="none" stroke="#7D4060" stroke-width="0.7" opacity="0.85"></ellipse><ellipse cx="966" cy="124" rx="5.5" ry="14" fill="none" stroke="#7D4060" stroke-width="0.7" opacity="0.85"></ellipse><ellipse cx="980" cy="124" rx="5.5" ry="14" fill="none" stroke="#7D4060" stroke-width="0.7" opacity="0.85"></ellipse><ellipse cx="994" cy="124" rx="5.5" ry="14" fill="none" stroke="#7D4060" stroke-width="0.7" opacity="0.85"></ellipse><ellipse cx="1008" cy="124" rx="5.5" ry="14" fill="none" stroke="#7D4060" stroke-width="0.7" opacity="0.85"></ellipse><ellipse cx="1022" cy="124" rx="5.5" ry="14" fill="none" stroke="#7D4060" stroke-width="0.7" opacity="0.85"></ellipse><ellipse cx="952" cy="158" rx="5.5" ry="14" fill="none" stroke="#7D4060" stroke-width="0.7" opacity="0.85"></ellipse><ellipse cx="966" cy="158" rx="5.5" ry="14" fill="none" stroke="#7D4060" stroke-width="0.7" opacity="0.85"></ellipse><ellipse cx="980" cy="158" rx="5.5" ry="14" fill="none" stroke="#7D4060" stroke-width="0.7" opacity="0.85"></ellipse><ellipse cx="994" cy="158" rx="5.5" ry="14" fill="none" stroke="#7D4060" stroke-width="0.7" opacity="0.85"></ellipse><ellipse cx="1008" cy="158" rx="5.5" ry="14" fill="none" stroke="#7D4060" stroke-width="0.7" opacity="0.85"></ellipse><ellipse cx="1022" cy="158" rx="5.5" ry="14" fill="none" stroke="#7D4060" stroke-width="0.7" opacity="0.85"></ellipse><ellipse cx="952" cy="192" rx="5.5" ry="14" fill="none" stroke="#7D4060" stroke-width="0.7" opacity="0.85"></ellipse><ellipse cx="966" cy="192" rx="5.5" ry="14" fill="#7D4060" stroke="#7D4060" stroke-width="0.7" opacity="0.85"></ellipse><ellipse cx="980" cy="192" rx="5.5" ry="14" fill="none" stroke="#7D4060" stroke-width="0.7" opacity="0.85"></ellipse><ellipse cx="994" cy="192" rx="5.5" ry="14" fill="none" stroke="#7D4060" stroke-width="0.7" opacity="0.85"></ellipse><ellipse cx="1008" cy="192" rx="5.5" ry="14" fill="none" stroke="#7D4060" stroke-width="0.7" opacity="0.85"></ellipse><ellipse cx="1022" cy="192" rx="5.5" ry="14" fill="none" stroke="#7D4060" stroke-width="0.7" opacity="0.85"></ellipse><ellipse cx="952" cy="226" rx="5.5" ry="14" fill="none" stroke="#7D4060" stroke-width="0.7" opacity="0.85"></ellipse><ellipse cx="966" cy="226" rx="5.5" ry="14" fill="none" stroke="#7D4060" stroke-width="0.7" opacity="0.85"></ellipse><ellipse cx="980" cy="226" rx="5.5" ry="14" fill="none" stroke="#7D4060" stroke-width="0.7" opacity="0.85"></ellipse><ellipse cx="994" cy="226" rx="5.5" ry="14" fill="none" stroke="#7D4060" stroke-width="0.7" opacity="0.85"></ellipse><ellipse cx="1008" cy="226" rx="5.5" ry="14" fill="none" stroke="#7D4060" stroke-width="0.7" opacity="0.85"></ellipse><ellipse cx="1022" cy="226" rx="5.5" ry="14" fill="none" stroke="#7D4060" stroke-width="0.7" opacity="0.85"></ellipse><ellipse cx="952" cy="260" rx="5.5" ry="14" fill="none" stroke="#7D4060" stroke-width="0.7" opacity="0.85"></ellipse><ellipse cx="966" cy="260" rx="5.5" ry="14" fill="none" stroke="#7D4060" stroke-width="0.7" opacity="0.85"></ellipse><ellipse cx="980" cy="260" rx="5.5" ry="14" fill="none" stroke="#7D4060" stroke-width="0.7" opacity="0.85"></ellipse><ellipse cx="994" cy="260" rx="5.5" ry="14" fill="none" stroke="#7D4060" stroke-width="0.7" opacity="0.85"></ellipse><ellipse cx="1008" cy="260" rx="5.5" ry="14" fill="none" stroke="#7D4060" stroke-width="0.7" opacity="0.85"></ellipse><ellipse cx="1022" cy="260" rx="5.5" ry="14" fill="none" stroke="#7D4060" stroke-width="0.7" opacity="0.85"></ellipse></g><rect x="984.0" y="34" width="8" height="24" rx="1.5" fill="#C9A27A" stroke="#9C7A55" stroke-width="0.6"></rect><g transform="rotate(-6 812 248)"><rect x="782" y="170" width="62" height="130" rx="4" fill="#2F4A48"></rect><circle cx="794" cy="188" r="3.2" fill="#D9B45A" opacity="0.85"></circle><circle cx="794" cy="188" r="1.2" fill="#2F4A48"></circle><circle cx="822" cy="204" r="3.2" fill="#D9B45A" opacity="0.85"></circle><circle cx="822" cy="204" r="1.2" fill="#2F4A48"></circle><circle cx="802" cy="224" r="3.2" fill="#D9B45A" opacity="0.85"></circle><circle cx="802" cy="224" r="1.2" fill="#2F4A48"></circle><circle cx="830" cy="242" r="3.2" fill="#D9B45A" opacity="0.85"></circle><circle cx="830" cy="242" r="1.2" fill="#2F4A48"></circle><circle cx="796" cy="262" r="3.2" fill="#D9B45A" opacity="0.85"></circle><circle cx="796" cy="262" r="1.2" fill="#2F4A48"></circle><circle cx="826" cy="278" r="3.2" fill="#D9B45A" opacity="0.85"></circle><circle cx="826" cy="278" r="1.2" fill="#2F4A48"></circle></g><rect x="850" y="204" width="54" height="84" rx="6" fill="#2B2620"></rect><path d="M848,202 h58 v26 q-29,14 -58,0 z" fill="#B8703A"></path><circle cx="877" cy="222" r="2.6" fill="#8C5228"></circle><line x1="752.0" y1="248" x2="752.0" y2="336" stroke="#CDBFA8" stroke-width="1.6" stroke-linecap="round"></line><line x1="752.0" y1="248" x2="752.0" y2="336" stroke="#FFFFFF" stroke-width="0.64" stroke-linecap="round"></line><line x1="773.0" y1="248" x2="773.0" y2="336" stroke="#CDBFA8" stroke-width="1.6" stroke-linecap="round"></line><line x1="773.0" y1="248" x2="773.0" y2="336" stroke="#FFFFFF" stroke-width="0.64" stroke-linecap="round"></line><line x1="794.0" y1="248" x2="794.0" y2="336" stroke="#CDBFA8" stroke-width="1.6" stroke-linecap="round"></line><line x1="794.0" y1="248" x2="794.0" y2="336" stroke="#FFFFFF" stroke-width="0.64" stroke-linecap="round"></line><line x1="815.0" y1="248" x2="815.0" y2="336" stroke="#CDBFA8" stroke-width="1.6" stroke-linecap="round"></line><line x1="815.0" y1="248" x2="815.0" y2="336" stroke="#FFFFFF" stroke-width="0.64" stroke-linecap="round"></line><line x1="836.0" y1="248" x2="836.0" y2="336" stroke="#CDBFA8" stroke-width="1.6" stroke-linecap="round"></line><line x1="836.0" y1="248" x2="836.0" y2="336" stroke="#FFFFFF" stroke-width="0.64" stroke-linecap="round"></line><line x1="857.0" y1="248" x2="857.0" y2="336" stroke="#CDBFA8" stroke-width="1.6" stroke-linecap="round"></line><line x1="857.0" y1="248" x2="857.0" y2="336" stroke="#FFFFFF" stroke-width="0.64" stroke-linecap="round"></line><line x1="878.0" y1="248" x2="878.0" y2="336" stroke="#CDBFA8" stroke-width="1.6" stroke-linecap="round"></line><line x1="878.0" y1="248" x2="878.0" y2="336" stroke="#FFFFFF" stroke-width="0.64" stroke-linecap="round"></line><line x1="899.0" y1="248" x2="899.0" y2="336" stroke="#CDBFA8" stroke-width="1.6" stroke-linecap="round"></line><line x1="899.0" y1="248" x2="899.0" y2="336" stroke="#FFFFFF" stroke-width="0.64" stroke-linecap="round"></line><line x1="920.0" y1="248" x2="920.0" y2="336" stroke="#CDBFA8" stroke-width="1.6" stroke-linecap="round"></line><line x1="920.0" y1="248" x2="920.0" y2="336" stroke="#FFFFFF" stroke-width="0.64" stroke-linecap="round"></line><line x1="752" y1="248" x2="920" y2="248" stroke="#CDBFA8" stroke-width="2.2" stroke-linecap="round"></line><line x1="752" y1="248" x2="920" y2="248" stroke="#FFFFFF" stroke-width="0.88" stroke-linecap="round"></line><line x1="752" y1="336" x2="920" y2="336" stroke="#CDBFA8" stroke-width="2.2" stroke-linecap="round"></line><line x1="752" y1="336" x2="920" y2="336" stroke="#FFFFFF" stroke-width="0.88" stroke-linecap="round"></line><line x1="752" y1="292.0" x2="920" y2="292.0" stroke="#CDBFA8" stroke-width="1.4" stroke-linecap="round"></line><line x1="752" y1="292.0" x2="920" y2="292.0" stroke="#FFFFFF" stroke-width="0.56" stroke-linecap="round"></line><g transform="rotate(4 714 252)" filter="url(#sh)"><rect x="714" y="252" width="30" height="76" rx="3" fill="#EFE3F0" stroke="#E4DCCC" stroke-width="0.6"></rect><rect x="714" y="266" width="30" height="22" fill="#F2D7A6" opacity="0.8"></rect><polyline points="721.0,301.1 724.2,302.8 728.0,302.5 733.7,301.7" fill="none" stroke="#2B2620" stroke-width="1.4" stroke-linecap="round" stroke-linejoin="round" opacity="0.7"></polyline><circle cx="729" cy="258" r="2" fill="#FAF6EE" stroke="#9A8F7A" stroke-width="0.6"></circle></g><line x1="730" y1="244" x2="730" y2="256" stroke="#9A8F7A" stroke-width="0.8"></line><line x1="40" y1="336" x2="240" y2="336" stroke="#CDBFA8" stroke-width="2.4" stroke-linecap="round"></line><line x1="40" y1="336" x2="240" y2="336" stroke="#FFFFFF" stroke-width="0.96" stroke-linecap="round"></line><line x1="46" y1="344" x2="234" y2="344" stroke="#CDBFA8" stroke-width="1.6" stroke-linecap="round"></line><line x1="46" y1="344" x2="234" y2="344" stroke="#FFFFFF" stroke-width="0.64" stroke-linecap="round"></line><line x1="40" y1="336" x2="40" y2="344" stroke="#CDBFA8" stroke-width="1.2" stroke-linecap="round"></line><line x1="40" y1="336" x2="40" y2="344" stroke="#FFFFFF" stroke-width="0.48" stroke-linecap="round"></line><line x1="65" y1="336" x2="65" y2="344" stroke="#CDBFA8" stroke-width="1.2" stroke-linecap="round"></line><line x1="65" y1="336" x2="65" y2="344" stroke="#FFFFFF" stroke-width="0.48" stroke-linecap="round"></line><line x1="90" y1="336" x2="90" y2="344" stroke="#CDBFA8" stroke-width="1.2" stroke-linecap="round"></line><line x1="90" y1="336" x2="90" y2="344" stroke="#FFFFFF" stroke-width="0.48" stroke-linecap="round"></line><line x1="115" y1="336" x2="115" y2="344" stroke="#CDBFA8" stroke-width="1.2" stroke-linecap="round"></line><line x1="115" y1="336" x2="115" y2="344" stroke="#FFFFFF" stroke-width="0.48" stroke-linecap="round"></line><line x1="140" y1="336" x2="140" y2="344" stroke="#CDBFA8" stroke-width="1.2" stroke-linecap="round"></line><line x1="140" y1="336" x2="140" y2="344" stroke="#FFFFFF" stroke-width="0.48" stroke-linecap="round"></line><line x1="165" y1="336" x2="165" y2="344" stroke="#CDBFA8" stroke-width="1.2" stroke-linecap="round"></line><line x1="165" y1="336" x2="165" y2="344" stroke="#FFFFFF" stroke-width="0.48" stroke-linecap="round"></line><line x1="190" y1="336" x2="190" y2="344" stroke="#CDBFA8" stroke-width="1.2" stroke-linecap="round"></line><line x1="190" y1="336" x2="190" y2="344" stroke="#FFFFFF" stroke-width="0.48" stroke-linecap="round"></line><line x1="215" y1="336" x2="215" y2="344" stroke="#CDBFA8" stroke-width="1.2" stroke-linecap="round"></line><line x1="215" y1="336" x2="215" y2="344" stroke="#FFFFFF" stroke-width="0.48" stroke-linecap="round"></line><line x1="240" y1="336" x2="240" y2="344" stroke="#CDBFA8" stroke-width="1.2" stroke-linecap="round"></line><line x1="240" y1="336" x2="240" y2="344" stroke="#FFFFFF" stroke-width="0.48" stroke-linecap="round"></line><g filter="url(#sh)"><path d="M112,248 C126,248 130,268 136,282 C152,298 156,324 142,334 L82,334 C68,324 72,298 88,282 C94,268 98,248 112,248 Z" fill="#FBF8F0" stroke="#D8CFBF" stroke-width="1"></path></g><path d="M112,248 q1,-10 5,-14" fill="none" stroke="#6B5A3A" stroke-width="2" stroke-linecap="round"></path><path d="M115,240 q12,-8 20,-2 q-10,8 -20,2 z" fill="#8FB25A"></path><circle cx="103" cy="300" r="2" fill="#2B2620"></circle><circle cx="121" cy="300" r="2" fill="#2B2620"></circle><path d="M107,307 q5,5 10,0" fill="none" stroke="#2B2620" stroke-width="1.4" stroke-linecap="round"></path><circle cx="96" cy="306" r="3" fill="#E9A9A0" opacity="0.7"></circle><circle cx="128" cy="306" r="3" fill="#E9A9A0" opacity="0.7"></circle><path d="M78,308 q-10,4 -12,12" fill="none" stroke="#E8B54A" stroke-width="3" stroke-linecap="round"></path><path d="M146,308 q10,4 12,12" fill="none" stroke="#E8B54A" stroke-width="3" stroke-linecap="round"></path><path d="M98,334 v10" stroke="#E8B54A" stroke-width="3" stroke-linecap="round"></path><circle cx="98" cy="346" r="3.5" fill="#E8B54A"></circle><path d="M126,334 v10" stroke="#E8B54A" stroke-width="3" stroke-linecap="round"></path><circle cx="126" cy="346" r="3.5" fill="#E8B54A"></circle></svg>
